<?xml version="1.0" standalone="no"?><!DOCTYPE svg PUBLIC "-//W3C//DTD SVG 1.1//EN" "http://www.w3.org/Graphics/SVG/1.1/DTD/svg11.dtd"><svg t="1760507608907" class="icon" viewBox="0 0 1280 1024" version="1.1" xmlns="http://www.w3.org/2000/svg" p-id="51963" xmlns:xlink="http://www.w3.org/1999/xlink" width="250" height="200"><path d="M59.36 613.44h1169.856v49.184H59.36z" fill="#FFFFFF" opacity=".54" p-id="51964"></path><path d="M794.72 880.384H408.672a18.24 18.24 0 0 0-18.336 18.112 18.24 18.24 0 0 0 18.336 18.144h386.048c4.864 0 9.536-1.92 12.96-5.312a18.016 18.016 0 0 0 0-25.632 18.432 18.432 0 0 0-12.96-5.312z" fill="#6E6E96" p-id="51965"></path><path d="M461.984 593.6V194.944H190.336c-53.152 0-79.616 41.92-85.216 67.84l-52.48 288.544-0.32-0.032c-5.6 25.92-10.24 68.896-10.24 95.392v203.616c0 26.56 21.984 48.224 48.832 48.224H1243.2V593.6H461.984z" fill="#FFCC4F" p-id="51966"></path><path d="M461.984 575.392l18.432 18.24V176.64H190.336c-62.688 0-96.096 49.216-103.264 82.304l-0.096 0.32-0.032 0.32-52.48 288.448 20.128-14.88-16.544-1.76c-0.32-0.032-3.744 16.032-3.744 16.032a564.224 564.224 0 0 0-10.656 99.232v203.616c0 36.64 30.176 66.464 67.264 66.464h1170.656V575.392h-18.432-781.152z m762.72 18.24v304.864l18.432-18.24H90.912a30.208 30.208 0 0 1-30.368-29.984v-203.584c0-25.088 4.512-67.072 9.824-91.616l-20 14.304 17.088 1.792c0.32 0.064 3.328-16.64 3.328-16.64l52.48-288.512-0.128 0.576c3.232-14.88 21.6-53.44 67.2-53.44h271.648l-18.464-18.24V611.84h799.616l-18.432-18.24z" fill="#6E6E96" p-id="51967"></path><path d="M909.76 675.552c-136.192 0-185.952 122.048-185.952 122.048h329.216H101.28h367.616s-55.008-122.048-191.2-122.048c-129.664 0-180.928 110.56-185.536 121.152a48.544 48.544 0 0 1-39.584-47.36v90.592c0 26.56 21.952 48.224 48.8 48.224h1152.224v-90.56h-152.704c0-0.032-54.976-122.048-191.136-122.048z m345.92-92.288v48.224l0.064-48.224h-0.064z" fill="#6E6E96" opacity=".12" p-id="51968"></path><path d="M1261.536 882.56c0 14.24-11.744 25.92-26.176 25.92H44.64a26.112 26.112 0 0 1-26.176-25.92v-48.288c0-14.208 11.776-25.888 26.176-25.888h1190.72c14.4 0 26.176 11.648 26.176 25.92v48.288z" fill="#F0F0FF" p-id="51969"></path><path d="M1232.736 858.976H42.016a26.112 26.112 0 0 1-26.208-25.92v39.104c0 14.208 11.776 25.888 26.208 25.888h1190.72a26.112 26.112 0 0 0 26.176-25.92v-39.04c0 14.24-11.776 25.888-26.176 25.888z" fill="#6E6E96" opacity=".15" p-id="51970"></path><path d="M1235.36 926.72H44.64C20 926.72 0 906.88 0 882.56v-48.288c0-24.32 20.032-44.128 44.64-44.128h1190.72c24.64 0 44.64 19.808 44.64 44.16v48.256c0 24.32-20.032 44.16-44.64 44.16z m-1190.72-100.096a7.808 7.808 0 0 0-7.744 7.68v48.288c0.064 4.192 3.52 7.584 7.744 7.68h1190.72a7.808 7.808 0 0 0 7.744-7.68v-48.32a7.808 7.808 0 0 0-7.744-7.648H44.64z" fill="#6E6E96" p-id="51971"></path><path d="M151.104 877.632c0 70.784 58.048 128.128 129.632 128.128 71.616 0 129.664-57.344 129.664-128.128 0-70.72-58.048-128.096-129.664-128.096-71.584 0-129.632 57.344-129.632 128.096z" fill="#BABADB" p-id="51972"></path><path d="M280.736 767.744c61.344 0 111.232 49.28 111.232 109.92 0 60.608-49.92 109.888-111.232 109.888s-111.2-49.28-111.2-109.888c0-60.608 49.92-109.92 111.2-109.92z m-148.096 109.888c0 80.704 66.432 146.368 148.16 146.368 81.632 0 148.064-65.664 148.064-146.368 0-80.672-66.432-146.336-148.096-146.336-81.696 0-148.128 65.664-148.128 146.336z" fill="#6E6E96" p-id="51973"></path><path d="M792.992 877.632c0 45.76 24.704 88.096 64.832 110.976a131.008 131.008 0 0 0 129.664 0 127.84 127.84 0 0 0 64.8-110.976c0-45.76-24.704-88.064-64.8-110.944a131.008 131.008 0 0 0-129.664 0 127.84 127.84 0 0 0-64.832 110.944z" fill="#BABADB" p-id="51974"></path><path d="M922.656 767.744c61.312 0 111.2 49.28 111.2 109.92 0 60.608-49.888 109.888-111.2 109.888-61.344 0-111.232-49.28-111.232-109.888 0-60.608 49.92-109.92 111.232-109.92z m-148.128 109.888c0 80.704 66.432 146.368 148.128 146.368 81.664 0 148.096-65.664 148.096-146.368 0-80.672-66.432-146.336-148.096-146.336s-148.128 65.664-148.128 146.336z" fill="#6E6E96" p-id="51975"></path><path d="M239.328 878.72c0 23.552 19.328 42.688 43.2 42.688 23.872 0 43.2-19.136 43.2-42.72s-19.328-42.688-43.2-42.688c-23.872 0-43.2 19.104-43.2 42.688z" fill="#F0F0FF" p-id="51976"></path><path d="M307.296 878.72a24.768 24.768 0 0 1-24.768 24.48 24.64 24.64 0 0 1-24.768-24.512 24.64 24.64 0 0 1 24.768-24.448 24.64 24.64 0 0 1 24.768 24.448z m-24.768-60.96c-33.984 0-61.664 27.328-61.664 60.928 0 33.6 27.68 60.928 61.664 60.928 16.352 0.032 32.064-6.4 43.616-17.856a60.16 60.16 0 0 0 18.08-43.072c-0.032-33.6-27.68-60.928-61.696-60.928z" fill="#6E6E96" p-id="51977"></path><path d="M880.768 878.72c0 15.232 8.256 29.344 21.6 36.96 13.376 7.616 29.856 7.616 43.2 0 13.408-7.616 21.632-21.728 21.632-36.992 0-15.264-8.224-29.344-21.6-36.992a43.648 43.648 0 0 0-43.2 0 42.624 42.624 0 0 0-21.632 36.992z" fill="#F0F0FF" p-id="51978"></path><path d="M948.768 878.72a24.64 24.64 0 0 1-24.768 24.448 24.64 24.64 0 0 1-24.768-24.48 24.64 24.64 0 0 1 24.768-24.448 24.64 24.64 0 0 1 24.768 24.448z m-24.768-60.96a61.632 61.632 0 0 0-43.616 17.856 60.16 60.16 0 0 0-18.048 43.072c0 33.6 27.648 60.928 61.632 60.928 34.016 0 61.664-27.328 61.664-60.928 0-33.6-27.648-60.928-61.632-60.928z" fill="#6E6E96" p-id="51979"></path><path d="M1242.336 623.616c0 14.336-11.84 26.048-26.336 26.048H469.984a26.272 26.272 0 0 1-26.336-26.048V44.288c0-14.336 11.84-26.048 26.336-26.048H1216c14.496 0 26.336 11.712 26.336 26.048v579.328z" fill="#A1B5FF" p-id="51980"></path><path d="M1223.904 623.616a7.968 7.968 0 0 1-7.904 7.808H469.984a8 8 0 0 1-7.904-7.808V44.288a8 8 0 0 1 7.904-7.84H1216c4.288 0 7.904 3.584 7.904 7.84v579.328zM1260.8 44.288C1260.8 19.84 1240.704 0 1216 0H469.984c-24.704 0-44.8 19.84-44.8 44.288v579.328c0 24.416 20.096 44.288 44.8 44.288H1216c24.704 0 44.8-19.872 44.8-44.288V44.288z" fill="#6E6E96" p-id="51981"></path><path d="M364.256 269.984H217.472c-17.472 0-34.816 13.792-38.464 30.72l-29.12 160.992c-1.632 7.616-3.168 17.504-4.32 32.8h218.688V269.984z" fill="#F0F0FF" p-id="51982"></path><path d="M364.256 251.744H217.472c-26.208 0-51.008 19.84-56.512 45.12a7.904 7.904 0 0 0-0.096 0.608l-29.12 161.024 0.128-0.608a259.52 259.52 0 0 0-4.736 35.232 18.112 18.112 0 0 0 4.864 13.76 18.56 18.56 0 0 0 13.536 5.856h218.72c4.896 0 9.6-1.92 13.056-5.344a18.112 18.112 0 0 0 5.376-12.928V269.984a18.496 18.496 0 0 0-18.464-18.24z m-18.464 49.632v193.12c0-4.832 1.92-9.472 5.376-12.896a18.56 18.56 0 0 1 13.088-5.344H145.536a18.56 18.56 0 0 1 13.536 5.824c3.52 3.712 5.248 8.704 4.864 13.76a224.64 224.64 0 0 1 4.096-30.912l29.12-161.024-0.128 0.64c1.856-8.576 11.584-16.352 20.416-16.352h146.816a18.176 18.176 0 0 1-18.464-18.24v31.424z" fill="#6E6E96" p-id="51983"></path><path d="M446.208 527.584h796.16v119.936h-796.16v-119.936z m-227.68-177.408c3.68-16.896 20.992-30.72 38.464-30.72h109.888V272.576H220.128c-17.472 0-34.784 13.824-38.464 30.72l-29.12 161.024a235.52 235.52 0 0 0-4.32 32.768H192l26.56-146.912z" fill="#6E6E96" opacity=".15" p-id="51984"></path><path d="M43.328 661.504H114.24v65.088H43.328z" fill="#FFF23F" p-id="51985"></path><path d="M114.24 744.832H43.296a18.336 18.336 0 0 1-18.432-18.24v-65.088c0-10.08 8.256-18.24 18.432-18.24H114.24c10.176 0 18.432 8.16 18.432 18.24v65.088c0 4.832-1.92 9.472-5.376 12.896a18.56 18.56 0 0 1-13.056 5.344z m-52.48-36.48h33.984v-28.64H61.792v28.672z" fill="#6E6E96" p-id="51986"></path><path d="M915.008 329.792c33.408 32.736 66.976 62.528 100.416 92.32 24.288 20.736 24.288 50.56 0 71.424l-24.288 23.872a51.2 51.2 0 0 1-36.576 14.944c-12.16 0-24.288-2.944-33.408-11.84-36.576-35.712-70.016-71.584-106.56-107.296a8.96 8.96 0 0 1 0-11.84c21.28-32.768 48.704-59.584 88.256-74.56 6.144-2.944 9.152-2.944 12.16 2.976z m30.272-259.296c-27.424 29.76-54.848 59.552-85.28 89.344-6.144 5.92-6.144 11.84-3.008 20.896 9.152 20.896 15.296 41.76 21.312 62.528 2.976 5.92 6.112 8.896 12.128 8.896 21.28 2.944 45.728 8.896 67.008 11.84 9.12 2.976 12.16 0 18.272-5.92 24.288-23.84 45.728-50.688 69.984-74.528l9.152-8.896c3.136 14.976 3.136 29.76 0.16 41.792-12.16 53.632-51.712 86.4-106.56 95.424-18.304 2.944-36.576 0-54.88-5.92-3.008 0-12.16 0-15.264 2.944-48.736 29.792-91.296 68.608-127.872 113.216-3.008 5.92-6.144 8.896-3.008 14.976 12.16 41.76-15.264 83.424-54.848 92.32-45.696 8.864-82.144-17.92-91.264-56.64-9.152-44.736 24.256-89.344 72.96-89.344h21.312c3.008 0 6.144 0 9.152-2.944a591.36 591.36 0 0 0 109.568-134.112c2.976-2.976 2.976-8.896 0-14.976-27.456-71.552 18.272-149.056 94.4-160.896 12.16-2.976 24.32 0 36.576 0z m-295.264 2.816l18.688 19.648 38.656 38.176c6.4 6.432 12.672 12.96 18.784 19.68 6.144 5.92 6.144 8.864 0 14.944-12.16 8.896-12.16 8.896 0 17.92 18.304 20.896 39.584 38.72 57.856 53.664a8.96 8.96 0 0 1 0 11.84c-9.12 8.896-15.264 17.92-24.288 23.872-2.976 2.944-6.144 2.944-9.12 0L689.728 213.44c-6.144-5.92-9.152-5.92-15.296 0-9.12 11.84-9.12 11.84-18.272 0-21.28-17.92-67.008-62.528-82.144-80.448-3.008-3.104-3.008-6.08 0-9.056l51.712-50.656c15.296-14.976 9.152-14.976 24.288 0z" fill="#FFFFFF" p-id="51987"></path><path d="M443.648 559.904h798.72v36.48h-798.72z" fill="#6E6E96" p-id="51988"></path><path d="M462.08 550.72h780.256v61.888H462.08z" fill="#6E6E96" opacity=".15" p-id="51989"></path></svg>