<?xml version="1.0" standalone="no"?><!DOCTYPE svg PUBLIC "-//W3C//DTD SVG 1.1//EN" "http://www.w3.org/Graphics/SVG/1.1/DTD/svg11.dtd"><svg t="1760507701612" class="icon" viewBox="0 0 1088 1024" version="1.1" xmlns="http://www.w3.org/2000/svg" p-id="55641" xmlns:xlink="http://www.w3.org/1999/xlink" width="212.5" height="200"><path d="M653.769874 687.352943h214.835391v121.760106h-214.835391z" fill="#F0F0FF" p-id="55642"></path><path d="M653.769874 702.39142h214.835391a15.034181 15.034181 0 0 1-15.038477-15.038477v121.760106a15.038477 15.038477 0 0 1 15.038477-15.038478h-214.835391a15.038477 15.038477 0 0 1 15.038478 15.038478v-121.760106a15.038477 15.038477 0 0 1-15.038478 15.038477z m0 121.760106h214.835391a15.038477 15.038477 0 0 0 15.038477-15.038477v-121.760106a15.038477 15.038477 0 0 0-15.038477-15.038478h-214.835391a15.038477 15.038477 0 0 0-15.038477 15.038478v121.760106a15.038477 15.038477 0 0 0 15.038477 15.038477z" fill="#6E6E96" p-id="55643"></path><path d="M1061.957117 886.526833c0 58.289138-48.337963 105.986892-107.417696 105.986892H373.053063c-59.079732 0-107.417695-47.697753-107.417696-105.986892s48.337963-105.982595 107.417696-105.982595h581.482062c59.084029 0 107.421992 47.68916 107.421992 105.982595z" fill="#F0F0FF" p-id="55644"></path><path d="M1046.918639 886.526833c0 50.151174-41.446044 90.948414-92.379218 90.948415H373.053063c-50.937471 0-92.379218-40.797241-92.379218-90.948415 0-50.146877 41.441747-90.944118 92.379218-90.944117h581.482062a92.435075 92.435075 0 0 1 65.301365 26.79427c17.466117 17.234095 27.082149 40.01524 27.082149 64.149847z m-92.379218-121.021072H373.053063c-67.52706 0-122.456173 54.288903-122.456173 121.021072s54.929113 121.025369 122.456173 121.025369h581.482062c67.52706 0 122.456173-54.2932 122.456172-121.025369 0-32.251089-12.799893-62.628813-36.032191-85.556046-23.172145-22.867079-53.863529-35.465026-86.419685-35.465026z" fill="#6E6E96" p-id="55645"></path><path d="M381.08361 888.430275m-45.356048 0a45.356048 45.356048 0 1 0 90.712095 0 45.356048 45.356048 0 1 0-90.712095 0Z" fill="#C5C5D1" p-id="55646"></path><path d="M411.40118 888.434572a30.360537 30.360537 0 0 1-30.326164 30.326163c-16.71849 0-30.31757-13.603377-30.31757-30.326163s13.603377-30.321867 30.31757-30.321867c16.727084 0.004297 30.326164 13.603377 30.326164 30.321867z m-30.31757-60.394525c-33.299486 0-60.394525 27.095039-60.394525 60.394525 0 33.308079 27.095039 60.407415 60.394525 60.407415 33.303782 0 60.403118-27.099336 60.403118-60.407415-0.008593-33.299486-27.099336-60.394525-60.403118-60.394525z" fill="#6E6E96" p-id="55647"></path><path d="M953.585552 888.430275m-45.356047 0a45.356048 45.356048 0 1 0 90.712095 0 45.356048 45.356048 0 1 0-90.712095 0Z" fill="#C5C5D1" p-id="55648"></path><path d="M983.903123 888.434572a30.360537 30.360537 0 0 1-30.326164 30.326163c-16.71849 0-30.31757-13.603377-30.31757-30.326163s13.59908-30.321867 30.31757-30.321867c16.722787 0 30.326164 13.603377 30.326164 30.321867z m-30.317571-60.394525c-33.299486 0-60.394525 27.095039-60.394525 60.394525 0 33.308079 27.095039 60.407415 60.394525 60.407415 33.303782 0 60.403118-27.099336 60.403119-60.407415-0.008593-33.299486-27.099336-60.394525-60.403119-60.394525z" fill="#6E6E96" p-id="55649"></path><path d="M810.870402 888.430275m-45.356047 0a45.356048 45.356048 0 1 0 90.712095 0 45.356048 45.356048 0 1 0-90.712095 0Z" fill="#C5C5D1" p-id="55650"></path><path d="M841.192269 888.434572c0 16.722787-13.59908 30.326164-30.31757 30.326163s-30.321867-13.603377-30.321867-30.326163 13.603377-30.321867 30.321867-30.321867 30.31757 13.603377 30.31757 30.321867z m-30.31757-60.394525c-33.303782 0-60.398822 27.095039-60.398822 60.394525 0 33.308079 27.095039 60.407415 60.398822 60.407415 33.299486 0 60.394525-27.099336 60.394525-60.407415 0-33.299486-27.095039-60.394525-60.394525-60.394525z" fill="#6E6E96" p-id="55651"></path><path d="M669.036077 888.430275m-45.356047 0a45.356048 45.356048 0 1 0 90.712095 0 45.356048 45.356048 0 1 0-90.712095 0Z" fill="#C5C5D1" p-id="55652"></path><path d="M699.353648 888.434572c0 16.722787-13.59908 30.326164-30.317571 30.326163-16.722787 0-30.326164-13.603377-30.326164-30.326163s13.603377-30.321867 30.326164-30.321867c16.71849 0 30.31757 13.603377 30.317571 30.321867z m-30.317571-60.394525c-33.303782 0-60.403118 27.095039-60.403118 60.394525 0 33.308079 27.099336 60.407415 60.403118 60.407415 33.299486 0 60.394525-27.099336 60.394525-60.407415 0-33.299486-27.095039-60.394525-60.394525-60.394525z" fill="#6E6E96" p-id="55653"></path><path d="M527.352137 888.430275m-45.360344 0a45.360344 45.360344 0 1 0 90.720688 0 45.360344 45.360344 0 1 0-90.720688 0Z" fill="#C5C5D1" p-id="55654"></path><path d="M557.669707 888.434572c0 16.722787-13.603377 30.326164-30.321867 30.326163s-30.321867-13.603377-30.321867-30.326163 13.603377-30.321867 30.321867-30.321867c16.722787 0.004297 30.321867 13.603377 30.321867 30.321867z m-30.31757-60.394525c-33.303782 0-60.398822 27.095039-60.398822 60.394525 0 33.308079 27.095039 60.407415 60.398822 60.407415 33.299486 0 60.398822-27.099336 60.398822-60.407415-0.004297-33.299486-27.095039-60.394525-60.398822-60.394525z" fill="#6E6E96" p-id="55655"></path><path d="M382.999941 832.689085h562.215624c49.162931 0 90.608974 34.167421 101.208953 79.617995 1.71009-7.355964 2.651069-14.99551 2.651069-22.845595 0-56.35562-46.739588-102.472185-103.860022-102.472185H382.999941c-57.120434 0-103.855725 46.103675-103.855724 102.472185 0 7.850085 0.936682 15.489632 2.651068 22.845595 10.599978-45.450575 52.041725-79.617996 101.204656-79.617995z" fill="#6E6E96" opacity=".15" p-id="55656"></path><path d="M707.478722 733.950739h47.263786v31.555022h-47.263786z" fill="#FFFFFF" p-id="55657"></path><path d="M806.303002 702.39142h47.263786v63.110044h-47.263786z" fill="#6E6E96" opacity=".15" p-id="55658"></path><path d="M526.763488 503.900706L324.272539 279.586778l89.289885-89.289886 141.202709 81.585888" fill="#FFC23F" p-id="55659"></path><path d="M537.926335 493.824926L335.435386 269.510998a15.038477 15.038477 0 0 1-0.528495 20.710131l89.289885-89.289885a15.038477 15.038477 0 0 1-18.157887 2.384673l141.194115 81.585888a15.034181 15.034181 0 0 0 20.54256-5.495489 15.025587 15.025587 0 0 0-5.495489-20.54256L421.085959 177.277868a15.047071 15.047071 0 0 0-18.162184 2.384673l-89.285588 89.289885a15.038477 15.038477 0 0 0-0.528495 20.710131l202.490949 224.313929a15.029884 15.029884 0 0 0 21.23433 1.08277 15.029884 15.029884 0 0 0 1.091364-21.23433z" fill="#6E6E96" p-id="55660"></path><path d="M413.562424 190.296892l-292.537055 292.537055-59.092623-59.096919 208.270022-326.068563s52.634671-81.912438 112.921778-45.27441c91.326525 55.522058 30.437878 137.902837 30.437878 137.902837z" fill="#FFC23F" p-id="55661"></path><path d="M376.855649 105.79354l-264.470959 342.473393 280.665251-304.335815z" fill="#FFDC82" p-id="55662"></path><path d="M110.210555 449.723517l258.91102-286.831027s20.572637-27.073556 7.738371-57.09895c-16.851688-39.409404-68.92349-39.254723-93.977594-0.030077 0 0 27.15949-59.956261 83.016692-59.956261s86.63452 72.730373 55.857202 130.542577c-30.781615 57.812204-291.312493 297.070082-291.312493 297.070082l-20.233198-23.696344z" fill="#F2A42E" p-id="55663"></path><path d="M402.928072 179.662541l-292.537055 292.537055a15.055664 15.055664 0 0 1 21.273001 0L72.567098 413.102676a15.038477 15.038477 0 0 1 2.040937 18.725053l208.274317-326.068563c1.800321-2.775673 45.472059-69.060985 92.439372-40.517955 23.842432 14.492795 37.93993 32.062034 41.897198 52.217891 6.432172 32.73232-15.519709 63.586979-15.743137 63.892045 0.438264-0.592946 0.928089-1.160111 1.452287-1.688606zM390.935961 39.542602C333.338592 4.537323 278.49971 56.935675 257.55326 89.539094L49.261755 415.642031a15.025587 15.025587 0 0 0 2.040936 18.725052l59.092623 59.096919a15.042774 15.042774 0 0 0 21.273 0l292.537055-292.537054c0.528495-0.528495 1.014023-1.09566 1.456584-1.6972 1.237452-1.671419 30.137109-41.441747 21.071055-87.566905-5.663061-28.787942-24.435377-53.051451-55.797047-72.120241z" fill="#6E6E96" p-id="55664"></path><path d="M62.246406 601.019193c-21.917507-33.815091-51.543307-89.023489-2.758486-177.282165l212.115574 212.102685c0 0.008593-121.979238 77.392301-209.357088-34.82052z" fill="#FFC23F" p-id="55665"></path><path d="M74.865837 592.842558c-25.694313-39.654316-43.749079-86.69897-2.217101-161.831204a15.029884 15.029884 0 0 1-23.795168 3.355729l212.111278 212.106982a15.034181 15.034181 0 0 1-4.399829-10.634352c0-5.16894 2.612398-9.951175 6.990744-12.705365-4.524433 2.844421-111.688623 68.493819-189.446145-31.361671 0.266396 0.348033 0.519902 0.700363 0.756221 1.069881z m207.372009 32.371396L70.122272 413.102676a15.047071 15.047071 0 0 0-23.790872 3.355729c-55.981806 101.269107-14.441235 165.363097 3.299872 192.733126 0.236319 0.36522 0.485528 0.71755 0.751924 1.061287 64.897475 83.338945 147.725111 70.65936 191.323805 55.693926 44.939267-15.438071 44.939267-24.259212 44.939267-30.107031a15.038477 15.038477 0 0 0-4.408422-10.625759z" fill="#6E6E96" p-id="55666"></path><path d="M554.765133 264.939301l-39.71447 422.413642h507.673215v-220.747661h-204.66938V264.939301z" fill="#FFC23F" p-id="55667"></path><path d="M610.802796 323.662406h143.226459v142.942876h-151.819874z" fill="#C4F0FF" p-id="55668"></path><path d="M610.802796 338.700884h143.222162a15.038477 15.038477 0 0 1-15.038478-15.038478v142.942876a15.038477 15.038477 0 0 1 15.038478-15.038477h-151.815577a15.025587 15.025587 0 0 1 15.0084 15.940786l8.593416-142.942876a15.029884 15.029884 0 0 1-15.008401 14.136169z m-8.593415 142.942875h151.815577a15.038477 15.038477 0 0 0 15.038477-15.038477V323.662406a15.038477 15.038477 0 0 0-15.038477-15.038477h-143.222162a15.034181 15.034181 0 0 0-15.012697 14.136169l-8.593416 142.942875a15.016994 15.016994 0 0 0 4.060389 11.210111 15.055664 15.055664 0 0 0 10.952309 4.730675z" fill="#6E6E96" p-id="55669"></path><path d="M911.572343 338.700884h66.598971v128.183684h-66.598971z" fill="#F0F0FF" p-id="55670"></path><path d="M978.171314 451.846091h-66.598971l15.038478 15.038477V338.700884l-15.038478 15.038477h66.598971l-15.038477-15.038477v128.183684l15.038477-15.038477z m0-128.183685h-81.637448v158.260639h96.675926V323.662406h-15.038478z" fill="#6E6E96" p-id="55671"></path><path d="M958.836129 338.700884V226.26893l-15.038477 15.038478h42.967078v-30.076955h-58.005555v127.470431z" fill="#6E6E96" p-id="55672"></path><path d="M535.550256 629.948926h429.730935v-148.305167h42.404209v190.670706l-481.514858 4.915434z" fill="#F2A42E" p-id="55673"></path><path d="M803.01602 451.566805v58.284841h162.265171v-28.207887z" fill="#FFFFFF" opacity=".63" p-id="55674"></path><path d="M539.791106 263.52998l-39.71447 422.417939a15.047071 15.047071 0 0 0 14.974027 16.452094h507.668918a15.038477 15.038477 0 0 0 15.038477-15.038477v-220.747661a15.038477 15.038477 0 0 0-15.038477-15.038477H818.050201a15.038477 15.038477 0 0 1 15.038477 15.038477V264.939301a15.038477 15.038477 0 0 0-15.038477-15.038478h-263.289365a15.038477 15.038477 0 0 0-14.96973 13.629157z m263.224914 1.409321v201.665981a15.038477 15.038477 0 0 0 15.038478 15.038477h204.66938a15.038477 15.038477 0 0 1-15.038478-15.038477v220.743364a15.038477 15.038477 0 0 1 15.038478-15.038477H515.050663a15.038477 15.038477 0 0 1 14.96973 16.452094l39.710173-422.413642a15.038477 15.038477 0 0 1-14.965433 13.629157h263.285068a15.038477 15.038477 0 0 1-15.034181-15.038477z" fill="#6E6E96" p-id="55675"></path><path d="M568.454444 279.977778v349.971148h-32.904188z" fill="#F2A42E" p-id="55676"></path><path d="M738.990777 374.50535h-131.238643l17.216908-35.804466h114.021735z" fill="#6E6E96" opacity=".15" p-id="55677"></path><path d="M926.610821 353.739361h36.522016v31.507758h-36.522016z" fill="#FFFFFF" p-id="55678"></path><path d="M933.055882 539.928601h30.076955v55.857201h-30.076955zM877.198681 539.928601h30.076954v55.857201h-30.076954zM821.341479 539.928601h30.076955v55.857201h-30.076955z" fill="#6E6E96" p-id="55679"></path><path d="M526.531466 404.535041L392.525742 270.529317l25.999379-25.999379 117.712608 56.789588v-22.772552L416.037328 209.090692l-71.024581 71.028877 174.99202 193.85027zM63.569792 449.083307s156.23689 159.592618 100.379688 159.592619-115.753309-88.103994-115.753308-88.103994 12.254211 181.961279 198.275878 111.400744l-182.902258-182.889369z" fill="#F2A42E" p-id="55680"></path><path d="M285.872861 101.462458s21.230033-23.365497 52.995594-5.482599c31.761264 17.878601 1.688606 56.823961 1.688606 56.823961l36.298588-47.005983c0-0.004297-30.433581-64.884585-90.982788-4.335379z" fill="#FFDC82" p-id="55681"></path><path d="M668.808352 702.39142h137.49465v31.563616h-137.49465z" fill="#6E6E96" opacity=".15" p-id="55682"></path></svg>