<?xml version="1.0" standalone="no"?><!DOCTYPE svg PUBLIC "-//W3C//DTD SVG 1.1//EN" "http://www.w3.org/Graphics/SVG/1.1/DTD/svg11.dtd"><svg t="1760508234453" class="icon" viewBox="0 0 1024 1024" version="1.1" xmlns="http://www.w3.org/2000/svg" p-id="94694" xmlns:xlink="http://www.w3.org/1999/xlink" width="200" height="200"><path d="M602.198 527h-50.754c-5.53 0-9.352-5.968-7.394-11.546l63.02-133.946c1.164-3.314 4.108-5.508 7.394-5.508h50.754c5.53 0 9.352 5.968 7.394 11.546l-63.02 133.946c-1.164 3.316-4.108 5.508-7.394 5.508z" fill="#FFC200" p-id="94695"></path><path d="M813.86 650.896h-105.932a17.658 17.658 0 0 1-17.656-17.656v-70.62h123.586v88.276zM637.308 633.242H142.962a17.658 17.658 0 0 1-17.656-17.656v-62.252l512-8.368v88.276z" fill="#736F7B" p-id="94696"></path><path d="M917.17 474.344l-30.87-77.178a17.658 17.658 0 0 0-16.392-11.098h-161.978a17.658 17.658 0 0 0-17.656 17.656v176.552H955.1v-73.32c0-8.632-37.93-32.612-37.93-32.612z" fill="#FFC200" p-id="94697"></path><path d="M496.066 650.896h88.276a17.658 17.658 0 0 0 17.656-17.656v-17.656a17.658 17.658 0 0 0-17.656-17.656h-88.276a17.658 17.658 0 0 0-17.656 17.656v17.656a17.658 17.658 0 0 0 17.656 17.656z" fill="#8D8A94" p-id="94698"></path><path d="M275.376 642.068m-61.794 0a61.794 61.794 0 1 0 123.588 0 61.794 61.794 0 1 0-123.588 0Z" fill="#504B5A" p-id="94699"></path><path d="M275.376 642.068m-35.31 0a35.31 35.31 0 1 0 70.62 0 35.31 35.31 0 1 0-70.62 0Z" fill="#DCDBDE" p-id="94700"></path><path d="M398.962 642.068m-61.794 0a61.794 61.794 0 1 0 123.588 0 61.794 61.794 0 1 0-123.588 0Z" fill="#504B5A" p-id="94701"></path><path d="M398.962 642.068m-35.31 0a35.31 35.31 0 1 0 70.62 0 35.31 35.31 0 1 0-70.62 0Z" fill="#DCDBDE" p-id="94702"></path><path d="M787.92 474.344h-71.164a8.828 8.828 0 0 1-8.828-8.828v-52.966a8.828 8.828 0 0 1 8.828-8.828h56.744a6.468 6.468 0 0 1 6.274 4.9l14.422 57.686a6.468 6.468 0 0 1-6.276 8.036zM887.42 474.344h-71.164a8.828 8.828 0 0 1-8.828-8.828l-13.6-52.966a8.828 8.828 0 0 1 8.828-8.828H863.8a6.468 6.468 0 0 1 6.274 4.9l23.622 57.686a6.468 6.468 0 0 1-6.276 8.036z" fill="#625D6B" p-id="94703"></path><path d="M796.204 650.896h176.552v-70.62c0-19.502-15.808-35.31-35.31-35.31h-70.62c-39.002 0-70.62 31.618-70.62 70.62v35.31z" fill="#FCAE12" p-id="94704"></path><path d="M981.584 650.896h-44.138v-35.31h44.138a8.828 8.828 0 0 1 8.828 8.828v17.656a8.828 8.828 0 0 1-8.828 8.826z" fill="#736F7B" p-id="94705"></path><path d="M893.308 642.068m-61.794 0a61.794 61.794 0 1 0 123.588 0 61.794 61.794 0 1 0-123.588 0Z" fill="#504B5A" p-id="94706"></path><path d="M893.308 642.068m-35.31 0a35.31 35.31 0 1 0 70.62 0 35.31 35.31 0 1 0-70.62 0Z" fill="#DCDBDE" p-id="94707"></path><path d="M129 398.198l474.732-39.06 1.492 18.152-474.732 39.06zM202.444 495.392l417.266-96.266 2.966 12.848L205.408 508.24z" fill="#A7A5AC" p-id="94708"></path><path d="M134.416 457.676l2.78-12.444 254.16 56.744-2.78 12.442z" fill="#A7A5AC" p-id="94709"></path><path d="M604.466 342.472a17.654 17.654 0 0 0-17.006 18.28l1.274 35.288a17.654 17.654 0 1 0 35.286-1.274l-1.274-35.288a17.656 17.656 0 0 0-18.28-17.006z" fill="#FCAE12" p-id="94710"></path><path d="M523.206 519.334H116.998a9 9 0 0 1-9-9v-18a9 9 0 0 1 9-9h406.21a9 9 0 0 1 9 9v18a9.002 9.002 0 0 1-9.002 9z" fill="#FFC200" p-id="94711"></path><path d="M549.844 487.138L167.6 454.128a9 9 0 1 1 1.548-17.932l382.244 33.01a9 9 0 0 1 8.192 9.74 8.996 8.996 0 0 1-9.74 8.192z" fill="#FFC200" p-id="94712"></path><path d="M623.398 419.822L123.146 460.764c-5.096 0.418-9.574-3.26-10.004-8.214l-1.854-21.394c-0.43-4.954 3.354-9.306 8.45-9.724l500.252-40.942c5.096-0.418 9.574 3.26 10.004 8.214l1.854 21.394c0.428 4.954-3.356 9.308-8.45 9.724z" fill="#FFC200" p-id="94713"></path><path d="M499.358 482h60.612c3.144 0 5.694 2.748 5.694 6.138v37.614c0 3.39-2.55 6.138-5.694 6.138h-60.612c-3.144 0-5.694-2.748-5.694-6.138v-37.614c0-3.39 2.55-6.138 5.694-6.138z" fill="#504B5A" p-id="94714"></path><path d="M124.924 394.688c-16.624 0.6-29.546 16.504-28.86 35.52l2.486 68.866c0.686 19.016 14.722 33.946 31.346 33.346 16.624-0.6 29.546-16.504 28.86-35.52l-2.486-68.866c-0.688-19.014-14.722-33.946-31.346-33.346z" fill="#FCAE12" p-id="94715"></path><path d="M606.538 404.068m-12.932 0a12.932 12.932 0 1 0 25.864 0 12.932 12.932 0 1 0-25.864 0Z" fill="#FCAE12" p-id="94716"></path><path d="M637.308 580.276H107.652c-9.75 0-17.656-8.1-17.656-18.092v9.908c0-9.992 7.906-18.092 17.656-18.092l316.344-30.134L637.308 522v58.276z" fill="#625D6B" p-id="94717"></path><path d="M663.79 650.896h-17.656a8.828 8.828 0 0 1-8.828-8.828V412.552a8.828 8.828 0 0 1 8.828-8.828h17.656a8.828 8.828 0 0 1 8.828 8.828v229.518a8.828 8.828 0 0 1-8.828 8.826zM187.1 650.896h-17.656a8.828 8.828 0 0 1-8.828-8.828v-70.62a8.828 8.828 0 0 1 8.828-8.828h17.656a8.828 8.828 0 0 1 8.828 8.828v70.62a8.828 8.828 0 0 1-8.828 8.828z" fill="#A7A5AC" p-id="94718"></path></svg>