<?xml version="1.0" standalone="no"?><!DOCTYPE svg PUBLIC "-//W3C//DTD SVG 1.1//EN" "http://www.w3.org/Graphics/SVG/1.1/DTD/svg11.dtd"><svg t="1760507843206" class="icon" viewBox="0 0 1024 1024" version="1.1" xmlns="http://www.w3.org/2000/svg" p-id="72928" xmlns:xlink="http://www.w3.org/1999/xlink" width="200" height="200"><path d="M556 263.2v12M356.8 524.8V293.6h273.6c8.8 0.8 17.6 4 24.8 8.8 24.8 14.4 47.2 31.2 67.2 52 34.4 32.8 56.8 56.8 68.8 71.2 6.4 7.2 12.8 15.2 19.2 24l112 85.6c11.2 11.2 21.6 23.2 31.2 35.2 8.8 12 17.6 25.6 24.8 38.4v32l-10.4 64.8-56 18.4h-8c2.4-9.6 4-19.2 4-28.8 0-14.4-2.4-28.8-8-41.6-4.8-12.8-12-24-21.6-34.4-8.8-9.6-20-17.6-32-23.2-24.8-11.2-52.8-11.2-77.6 0-12 5.6-22.4 13.6-32 23.2-9.6 9.6-16.8 21.6-21.6 34.4-8.8 22.4-10.4 47.2-4 70.4H292.8c5.6-23.2 4.8-48-4-70.4-4.8-12.8-12-24-21.6-34.4-8.8-9.6-20-17.6-32-23.2-24.8-11.2-52.8-11.2-77.6 0-12 5.6-23.2 13.6-32 23.2s-16 21.6-20.8 34.4c-9.6 24-10.4 50.4-3.2 74.4h-2.4c-4.8 0.8-9.6-0.8-12.8-4C72.8 705.6 63.2 685.6 56 664c-4.8-19.2-7.2-38.4-8-58.4-1.6-20.8-1.6-39.2-1.6-39.2v-41.6H356.8z m252.8-32.8" fill="#FFAC06" p-id="72929"></path><path d="M382.4 325.6h133.6v132H382.4z" fill="#424242" p-id="72930"></path><path d="M520 461.6H378.4V321.6H520v140z m-133.6-8H512V329.6H386.4v124z" fill="#4C2F0D" p-id="72931"></path><path d="M607.2 323.2c-31.2 0-64.8 2.4-64.8 2.4v131.2h211.2l12.8-16.8c-1.6-0.8-89.6-108.8-118.4-114.4-13.6-1.6-27.2-2.4-40.8-2.4z" fill="#424242" p-id="72932"></path><path d="M755.2 460.8H538.4V321.6h4c11.2-0.8 39.2-2.4 64.8-2.4 13.6 0 27.2 0.8 40.8 2.4 29.6 5.6 111.2 104.8 120.8 116l1.6 2.4-1.6 2.4-13.6 18.4z m-208.8-8h204.8l9.6-12.8c-31.2-38.4-92.8-106.4-113.6-110.4-12.8-1.6-26.4-2.4-39.2-2.4-23.2 0-48.8 1.6-60.8 2.4v123.2z" fill="#4C2F0D" p-id="72933"></path><path d="M609.6 492H568c-6.4 0-12 5.6-12 12s5.6 12 12 12h41.6c6.4 0 12-5.6 12-12-0.8-6.4-5.6-12-12-12M398.4 492c-6.4 0-12 5.6-12 12s5.6 12 12 12H440c6.4 0 12-5.6 12-12s-5.6-12-12-12h-41.6z" fill="#5E4307" p-id="72934"></path><path d="M806.4 778.4c-48-1.6-85.6-39.2-84-84-1.6-44.8 36-82.4 84-84h0.8c48 2.4 84.8 39.2 83.2 84 1.6 44.8-35.2 82.4-84 84zM196.8 778.4c-48-1.6-85.6-39.2-84-84-1.6-44.8 36-82.4 84-84 48 1.6 85.6 39.2 84 84 1.6 44.8-36 82.4-84 84z" fill="#4F4F4F" p-id="72935"></path><path d="M565.6 261.6H369.6v32h8v-24h33.6v24h8v-24h34.4v24h7.2v-24h36v24h7.2v-24h61.6z" fill="#7C7C7C" p-id="72936"></path><path d="M573.6 293.6h-16c-12.8 0-24-10.4-24-24s10.4-24 24-24h16c13.6 0 24 10.4 24 24 0 12.8-11.2 24-24 24z" fill="#D30000" p-id="72937"></path><path d="M356.8 492H46.4v32h13.6v-24h36.8v24h7.2v-24h34.4v24h7.2v-24h36.8v24h7.2v-24h35.2v24h8v-24h34.4v24h7.2v-24h36v24h7.2v-24h39.2z" fill="#7C7C7C" p-id="72938"></path><path d="M815.2 517.6l1.6 24.8L856 552c2.4 8 8.8 15.2 16.8 17.6 6.4 1.6 13.6 2.4 20.8 1.6 16 0 33.6-1.6 33.6-1.6l-3.2-4.8c-3.2-4.8-5.6-9.6-8.8-15.2-6.4-8.8-13.6-16-22.4-21.6l-77.6-10.4z" fill="#D30000" p-id="72939"></path><path d="M196.8 744.8c-28 0-49.6-22.4-49.6-49.6 0-28 22.4-49.6 49.6-49.6s49.6 22.4 49.6 49.6c0 27.2-22.4 49.6-49.6 49.6z" fill="#231F20" p-id="72940"></path><path d="M145.6 705.6c1.6 6.4 3.2 12 6.4 16.8l6.4-3.2 26.4-13.6c1.6 2.4 4.8 4 7.2 4.8l-4 28.8-0.8 7.2c3.2 0.8 5.6 0.8 8.8 0.8 3.2 0 6.4 0 9.6-0.8l-0.8-8-2.4-28.8c3.2-0.8 5.6-2.4 8-4.8l24.8 12.8 6.4 3.2c3.2-4.8 5.6-10.4 6.4-16.8l-7.2-2.4-26.4-5.6v-1.6c0-4-1.6-7.2-3.2-10.4l16.8-22.4 4-5.6c-4.8-4-9.6-7.2-15.2-9.6l-3.2 7.2-11.2 25.6c-1.6 0-3.2-0.8-4-0.8-1.6 0-4 0-5.6 0.8l-13.6-25.6-3.2-6.4c-5.6 2.4-10.4 6.4-15.2 10.4l4.8 5.6 19.2 22.4c-1.6 2.4-3.2 5.6-3.2 8.8v0.8l-28.8 8-7.2 2.4z" fill="#9E9E9E" p-id="72941"></path><path d="M112.8 694.4c0 46.4 37.6 84 84 84s84-37.6 84-84-37.6-84-84-84S112.8 648 112.8 694.4z m30.4 0a53.6 53.6 0 1 1 53.6 53.6c-29.6 0-53.6-23.2-53.6-53.6z" fill="#333333" p-id="72942"></path><path d="M132 694.4c0 36 28.8 64.8 64.8 64.8s64.8-28.8 64.8-64.8-28.8-64.8-64.8-64.8-64.8 29.6-64.8 64.8z m11.2 0a53.6 53.6 0 1 1 53.6 53.6c-29.6 0-53.6-23.2-53.6-53.6z" fill="#BCBCBC" opacity=".67" p-id="72943"></path><path d="M137.6 694.4c0 32.8 26.4 59.2 59.2 59.2 32.8 0 58.4-26.4 58.4-59.2 0-32.8-26.4-59.2-58.4-59.2s-59.2 27.2-59.2 59.2z m8.8 0c0-28 22.4-49.6 49.6-49.6s49.6 22.4 49.6 49.6c0 28-22.4 49.6-49.6 49.6s-49.6-21.6-49.6-49.6z" fill="#D1D3D4" p-id="72944"></path><path d="M142.4 694.4c0 30.4 24.8 54.4 54.4 54.4s54.4-24.8 54.4-54.4-24-54.4-54.4-54.4-54.4 24.8-54.4 54.4z m4 0c0-28 22.4-49.6 49.6-49.6s49.6 22.4 49.6 49.6c0 28-22.4 49.6-49.6 49.6s-49.6-21.6-49.6-49.6z" fill="#BCBCBC" opacity=".46" p-id="72945"></path><path d="M806.4 744.8c-28 0-49.6-22.4-49.6-49.6 0-28 22.4-49.6 49.6-49.6s49.6 22.4 49.6 49.6c0.8 27.2-21.6 49.6-49.6 49.6z" fill="#231F20" p-id="72946"></path><path d="M755.2 705.6c1.6 6.4 3.2 12 6.4 16.8l6.4-3.2 26.4-13.6c1.6 2.4 4.8 4 7.2 4.8l-4 28.8-0.8 7.2c3.2 0.8 5.6 0.8 8.8 0.8 3.2 0 6.4 0 9.6-0.8l-0.8-8-2.4-28.8c3.2-0.8 5.6-2.4 8-4.8l24.8 12.8 6.4 3.2c3.2-4.8 5.6-10.4 6.4-16.8l-7.2-2.4-26.4-5.6v-1.6c0-4-1.6-7.2-3.2-10.4l16.8-22.4 4.8-6.4c-4.8-4-9.6-7.2-15.2-9.6l-3.2 7.2-11.2 25.6c-1.6 0-3.2-0.8-4-0.8-1.6 0-4 0-5.6 0.8l-13.6-25.6-3.2-6.4c-5.6 2.4-10.4 6.4-15.2 10.4l4.8 5.6 19.2 22.4c-1.6 2.4-3.2 5.6-3.2 8.8v0.8l-28.8 8-8 3.2z" fill="#9E9E9E" p-id="72947"></path><path d="M722.4 694.4c0 46.4 37.6 84 84 84s84-37.6 84-84-37.6-84-84-84S722.4 648 722.4 694.4z m30.4 0a53.6 53.6 0 1 1 53.6 53.6c-29.6 0-53.6-23.2-53.6-53.6z" fill="#333333" p-id="72948"></path><path d="M741.6 694.4c0 36 28.8 64.8 64.8 64.8s64.8-28.8 64.8-64.8-28.8-64.8-64.8-64.8-64.8 29.6-64.8 64.8z m11.2 0a53.6 53.6 0 1 1 53.6 53.6c-29.6 0-53.6-23.2-53.6-53.6z" fill="#BCBCBC" opacity=".67" p-id="72949"></path><path d="M748 694.4c0 32.8 26.4 59.2 59.2 59.2 32.8 0 58.4-26.4 58.4-59.2 0-32.8-26.4-59.2-58.4-59.2-32.8 0.8-59.2 27.2-59.2 59.2z m8.8 0c0-28 22.4-49.6 49.6-49.6s49.6 22.4 49.6 49.6c0 28-22.4 49.6-49.6 49.6s-49.6-21.6-49.6-49.6z" fill="#D1D3D4" p-id="72950"></path><path d="M752 694.4c0 30.4 24.8 54.4 54.4 54.4s54.4-24.8 54.4-54.4-24-54.4-54.4-54.4-54.4 24.8-54.4 54.4z m4.8 0c0-28 22.4-49.6 49.6-49.6s49.6 22.4 49.6 49.6c0 28-22.4 49.6-49.6 49.6s-49.6-21.6-49.6-49.6z" fill="#BCBCBC" opacity=".46" p-id="72951"></path></svg>