<?xml version="1.0" standalone="no"?><!DOCTYPE svg PUBLIC "-//W3C//DTD SVG 1.1//EN" "http://www.w3.org/Graphics/SVG/1.1/DTD/svg11.dtd"><svg t="1760507931815" class="icon" viewBox="0 0 1024 1024" version="1.1" xmlns="http://www.w3.org/2000/svg" p-id="93165" xmlns:xlink="http://www.w3.org/1999/xlink" width="200" height="200"><path d="M33.4848 604.65152H21.26848a7.2192 7.2192 0 0 0-8.98048 7.70048v32.5632a7.168 7.168 0 0 0 9.00096 7.71072H33.4848v-47.9744z" fill="#FDB937" p-id="93166"></path><path d="M33.4848 659.08736H21.26848c-7.44448 0-9.00096 2.24256-9.00096 4.95616v20.85888c0 2.7648 1.55648 4.9664 9.00096 4.9664H33.4848v-30.78144z" fill="#F5822A" p-id="93167"></path><path d="M237.19936 427.4688a17.2032 17.2032 0 0 0-17.23392-17.18272H106.9056a48.45568 48.45568 0 0 0-43.69408 27.5456l-33.57696 70.13376a47.42144 47.42144 0 0 0-4.54656 20.14208v150.34368a58.23488 58.23488 0 0 0 58.1632 58.13248h153.94816V427.4688z" fill="#FF4C40" p-id="93168"></path><path d="M267.53024 673.45408h631.01952v63.11936H267.53024v-63.11936z" fill="#37353A" p-id="93169"></path><path d="M871.13728 239.83104L924.672 360.38656 814.34624 553.32864l-127.30368 54.272H368.30208L315.21792 486.7072h-47.69792v186.70592H898.56v-44.35968l98.46784-307.32288a62.76096 62.76096 0 0 0-59.76064-81.92h-66.12992z" fill="#FDC00F" p-id="93170"></path><path d="M156.09856 436.40832a2.7136 2.7136 0 0 1 0.2048 0.50176 2.7136 2.7136 0 0 0-0.2048-0.50176" fill="#7E8283" p-id="93171"></path><path d="M61.66528 516.79232a9.34912 9.34912 0 0 1-1.81248-1.024 9.34912 9.34912 0 0 0 1.81248 1.024" fill="#7E8283" p-id="93172"></path><path d="M847.872 722.688a76.92288 76.92288 0 1 0-76.93312 76.9024 76.93312 76.93312 0 0 0 76.93312-76.9024" fill="#575656" p-id="93173"></path><path d="M650.52672 722.688a76.91264 76.91264 0 1 0-76.9024 76.9024 76.91264 76.91264 0 0 0 76.9024-76.9024" fill="#575656" p-id="93174"></path><path d="M168.64256 556.3904h37.51936a7.72096 7.72096 0 0 0 7.71072-7.72096v-0.16384a7.69024 7.69024 0 0 0-7.71072-7.69024h-29.7984a7.70048 7.70048 0 0 0-7.72096 7.69024v7.8848z" fill="#FDB937" p-id="93175"></path><path d="M822.87616 722.688a51.968 51.968 0 1 1-51.968-51.968 51.968 51.968 0 0 1 51.968 51.99872" fill="#BBBDBF" p-id="93176"></path><path d="M797.45024 722.688a26.55232 26.55232 0 1 1-26.55232-26.56256 26.55232 26.55232 0 0 1 26.55232 26.56256" fill="#575656" p-id="93177"></path><path d="M625.59232 722.688a51.968 51.968 0 1 1-51.968-51.968 51.97824 51.97824 0 0 1 51.968 51.99872" fill="#BBBDBF" p-id="93178"></path><path d="M600.17664 722.688a26.56256 26.56256 0 1 1-26.55232-26.56256 26.55232 26.55232 0 0 1 26.55232 26.56256" fill="#575656" p-id="93179"></path><path d="M267.53024 353.80224h45.9776V486.7072h-45.9776V353.80224z" fill="#575656" p-id="93180"></path><path d="M338.18624 413.696a47.6672 47.6672 0 1 1-47.63648-47.67744 47.65696 47.65696 0 0 1 47.63648 47.67744" fill="#BBBDBF" p-id="93181"></path><path d="M325.70368 342.25152a11.55072 11.55072 0 0 1-11.55072 11.56096h-47.27808a11.55072 11.55072 0 0 1 0-23.10144h47.27808a11.53024 11.53024 0 0 1 11.55072 11.54048" fill="#FF4C40" p-id="93182"></path><path d="M73.2672 529.46944a18.08384 18.08384 0 0 1-16.31232-25.81504l24.29952-50.75968a45.49632 45.49632 0 0 1 40.8576-25.76384h37.888a14.1824 14.1824 0 0 1 14.1312 14.20288v61.952a26.2144 26.2144 0 0 1-26.17344 26.18368h-74.752z" fill="#4A4847" p-id="93183"></path><path d="M596.2752 231.94624l-113.03936 51.0976-132.43392 168.0384 63.13984 139.68384 213.66784 11.60192 113.02912-51.0976 170.06592-185.04704-63.17056-139.69408z" fill="#FDC00F" p-id="93184"></path><path d="M628.34688 617.76896a15.36 15.36 0 0 1-14.00832-9.02144L469.71904 288.768a15.36 15.36 0 0 1 7.6288-20.29568 15.104 15.104 0 0 1 6.33856-1.3824 15.36 15.36 0 0 1 13.99808 9.04192l144.5888 319.91808a15.36 15.36 0 0 1-13.9264 21.67808" fill="#575656" p-id="93185"></path><path d="M739.10272 567.69536a15.36 15.36 0 0 1-13.98784-9.04192L580.5056 238.73536a15.36 15.36 0 0 1 7.61856-20.31616 15.50336 15.50336 0 0 1 6.32832-1.36192 15.36 15.36 0 0 1 13.9776 9.02144l144.66048 319.95904a15.36 15.36 0 0 1-7.68 20.29568 15.19616 15.19616 0 0 1-6.30784 1.36192" fill="#575656" p-id="93186"></path><path d="M400.9984 604.73344a20.89984 20.89984 0 0 1-19.01568-12.288l-53.54496-118.4768a20.91008 20.91008 0 0 1 10.48576-27.648l16.46592-7.45472 70.74816 156.47744-16.5376 7.50592a20.48 20.48 0 0 1-8.62208 1.88416" fill="#575656" p-id="93187"></path><path d="M835.328 221.91104l16.54784-7.44448a20.5312 20.5312 0 0 1 8.6016-1.85344 20.95104 20.95104 0 0 1 19.01568 12.288l53.56544 118.51776a20.92032 20.92032 0 0 1-10.4448 27.648l-16.51712 7.45472z" fill="#575656" p-id="93188"></path><path d="M918.46656 668.8256l-46.08-41.82016a9.43104 9.43104 0 0 0-6.25664-2.36544H506.88a9.41056 9.41056 0 0 0-6.23616 2.3552l-45.66016 40.6528a9.35936 9.35936 0 0 0-0.82944 13.11744l0.84992 1.024a9.3696 9.3696 0 0 0 13.48608 0.67584l38.48192-36.1984a9.35936 9.35936 0 0 1 6.42048-2.53952h347.04384a9.35936 9.35936 0 0 1 6.42048 2.53952l38.7584 36.4544a9.35936 9.35936 0 0 0 13.25056-0.41984l0.13312-0.11264a9.39008 9.39008 0 0 0-0.53248-13.3632" fill="#FF4C40" p-id="93189"></path><path d="M146.09408 698.91072v37.6832H83.2512a57.98912 57.98912 0 0 1-54.35392-37.6832h117.1968z" fill="#37353A" p-id="93190"></path><path d="M285.83936 722.688a76.92288 76.92288 0 1 0-76.9024 76.9024 76.91264 76.91264 0 0 0 76.9024-76.9024" fill="#575656" p-id="93191"></path><path d="M260.9152 722.688A51.98848 51.98848 0 1 1 208.896 670.72a51.97824 51.97824 0 0 1 51.968 51.99872" fill="#BBBDBF" p-id="93192"></path><path d="M235.52 722.688a26.55232 26.55232 0 1 1-26.624-26.56256 26.53184 26.53184 0 0 1 26.624 26.56256" fill="#575656" p-id="93193"></path></svg>