<?xml version="1.0" standalone="no"?><!DOCTYPE svg PUBLIC "-//W3C//DTD SVG 1.1//EN"
        "http://www.w3.org/Graphics/SVG/1.1/DTD/svg11.dtd">
<svg t="1759199791722" class="icon" viewBox="0 0 1147 1024" version="1.1" xmlns="http://www.w3.org/2000/svg"
     p-id="40616" xmlns:xlink="http://www.w3.org/1999/xlink" width="224.0234375" height="200">
    <path d="M577.980145 584.790361L955.058892 766.026024v38.640578l-377.078747 209.981687-377.06641-218.95094v-34.149783z"
          fill="#1890FF" opacity=".2" p-id="40617"></path>
    <path d="M579.238554 978.15441L959.969157 766.13706 579.324916 531.863133l-2.553832-0.024675-380.69359 225.23065 380.718265 221.060627 2.430458 0.024675zM950.222651 765.902651L578.066506 973.157783 205.836337 757.019759 578.004819 536.847422 950.222651 765.902651z"
          fill="#FFFFFF" opacity=".2" p-id="40618"></path>
    <path d="M577.77041 302.857253l502.771662 243.243181v43.846939L577.758072 871.732434 75.023422 577.90612v-37.826313z"
          fill="#1890FF" opacity=".4" p-id="40619"></path>
    <path d="M579.028819 830.007518L1085.44 546.186795l-506.324819-313.615422-2.553832-0.024674L70.199518 534.046843l506.374169 295.936 2.455132 0.024675z m496.701687-284.030458L577.844434 824.998554 79.909012 533.997494l497.886072-296.454169 497.935422 308.433735z"
          fill="#FFFFFF" opacity=".4" p-id="40620"></path>
    <path d="M571.515373 89.988627l565.605784 270.558072V412.06747L571.515373 725.497831 5.921928 398.656771v-44.809253z"
          fill="#1890FF" opacity=".6" p-id="40621"></path>
    <path d="M572.761446 676.123759L1142.068434 360.645398 572.847807 12.028916l-2.541494-0.024675L1.061012 347.148337l569.269976 328.963085 2.430458 0.012337z m559.52347-315.700434L571.589398 671.127133 10.856867 347.098988 571.540048 17.025542l560.73253 343.410121z"
          fill="#FFFFFF" opacity=".6" p-id="40622"></path>
</svg>